<svg width="35" height="22" viewBox="0 0 35 22" fill="none" xmlns="http://www.w3.org/2000/svg">
<g clip-path="url(#clip0_46_1427)">
<path d="M0.728516 2.76611C0.728516 1.2503 1.97145 0.0214844 3.50469 0.0214844H31.2664C32.7997 0.0214844 34.0426 1.2503 34.0426 2.76611V19.2339C34.0426 20.7497 32.7997 21.9785 31.2664 21.9785H3.50469C1.97145 21.9785 0.728516 20.7497 0.728516 19.2339V2.76611Z" fill="#D4DEF7"/>
<path d="M25.3134 6.7934L24.6688 8.19823H25.9615L25.3134 6.7934ZM17.8753 7.66395C17.9968 7.60693 18.0683 7.48292 18.0683 7.32893C18.0683 7.17801 17.9932 7.06872 17.8717 7.01736C17.761 6.96043 17.5908 6.95385 17.4275 6.95385H16.2743V7.7366H17.4121C17.5943 7.73664 17.7465 7.73423 17.8753 7.66395ZM3.09844 6.7934L2.46114 8.19823H3.73958L3.09844 6.7934ZM32.77 15.7932H30.9614V15.0373H32.7627C32.9412 15.0373 33.0663 15.0163 33.1416 14.95C33.2128 14.891 33.253 14.8075 33.2523 14.7202C33.2523 14.6175 33.207 14.5359 33.1379 14.4871C33.07 14.4333 32.971 14.4088 32.8079 14.4088C31.9285 14.382 30.8315 14.4332 30.8315 13.3178C30.8315 12.8067 31.1924 12.2685 32.1752 12.2685H34.0407V11.5672H32.3075C31.7845 11.5672 31.4044 11.6799 31.1354 11.8551V11.5672H28.5718C28.1619 11.5672 27.6807 11.6586 27.4531 11.8551V11.5672H22.8749V11.8551C22.5106 11.6187 21.8957 11.5672 21.6121 11.5672H18.5923V11.8551C18.3042 11.6041 17.663 11.5672 17.2725 11.5672H13.8929L13.1196 12.32L12.3953 11.5672H7.3468V16.4859H12.3L13.0968 15.721L13.8475 16.4859L16.9006 16.4883V15.3312H17.2009C17.606 15.3371 18.0837 15.3223 18.5054 15.1584V16.4857H21.0237V15.2037H21.1452C21.3002 15.2037 21.3155 15.2095 21.3155 15.3489V16.4854H28.966C29.4517 16.4854 29.9594 16.3737 30.2405 16.1706V16.4854H32.6673C33.1722 16.4854 33.6654 16.4218 34.0406 16.2588V15.3425C33.8132 15.6417 33.3697 15.7934 32.7699 15.7934L32.77 15.7932ZM17.241 14.6318H16.0724V15.8141H14.2522L13.0989 14.6473L11.9006 15.8141H8.19091V12.2893H11.9576L13.1098 13.4447L14.301 12.2893H17.2935C18.0368 12.2893 18.8718 12.4744 18.8718 13.4505C18.8718 14.4297 18.0596 14.6318 17.241 14.6318ZM22.8601 14.472C22.9924 14.644 23.0115 14.8046 23.0153 15.1154V15.8141H22.075V15.3732C22.075 15.1611 22.0977 14.8471 21.9236 14.6832C21.7869 14.557 21.5783 14.5268 21.2365 14.5268H20.2357V15.8141H19.2947V12.2893H21.4567C21.931 12.2893 22.2763 12.3083 22.5836 12.4556C22.8792 12.6162 23.0652 12.8363 23.0652 13.2384C23.0651 13.8009 22.648 14.0879 22.4014 14.1761C22.6098 14.2453 22.7801 14.3693 22.8601 14.472ZM26.7287 13.0183H24.5356V13.659H26.6751V14.3782H24.5356V15.0796L26.7287 15.0827V15.8141H23.603V12.2893H26.7287V13.0183ZM29.1352 15.814H27.3112V15.0582H29.1279C29.3056 15.0582 29.4316 15.0371 29.5105 14.9709C29.5749 14.9164 29.6212 14.8371 29.6212 14.7411C29.6212 14.6383 29.571 14.5568 29.5069 14.5079C29.4352 14.4541 29.3363 14.4298 29.1733 14.4298C28.2975 14.4028 27.2007 14.4541 27.2007 13.3387C27.2007 12.8275 27.5579 12.2893 28.5397 12.2893H30.4173V13.0394H28.6992C28.5289 13.0394 28.4182 13.0453 28.3241 13.1033C28.2214 13.1604 28.1833 13.245 28.1833 13.3567C28.1833 13.4897 28.2705 13.5802 28.3882 13.6193C28.4871 13.6502 28.5931 13.6592 28.7527 13.6592L29.2569 13.6716C29.7651 13.6826 30.1142 13.7618 30.3264 13.955C30.5086 14.1247 30.6065 14.339 30.6065 14.7017C30.6064 15.46 30.0797 15.814 29.1352 15.814ZM21.8717 13.0751C21.7586 13.0147 21.5916 13.0115 21.4249 13.0115H20.2717V13.8031H21.4095C21.5917 13.8031 21.7466 13.7972 21.8717 13.7304C21.9931 13.6644 22.0658 13.5428 22.0658 13.3921C22.0658 13.2413 21.9931 13.1322 21.8717 13.0751ZM32.3356 13.0114C32.1652 13.0114 32.0519 13.0172 31.9566 13.075C31.8578 13.1322 31.8198 13.2168 31.8198 13.3287C31.8198 13.4615 31.9032 13.5521 32.0246 13.5912C32.1235 13.6222 32.2294 13.6312 32.3854 13.6312L32.8931 13.6433C33.4052 13.6548 33.7473 13.734 33.9557 13.9272C33.9937 13.954 34.0165 13.9841 34.0426 14.0143V13.0115H32.3356L32.3356 13.0114ZM17.2734 13.0114H16.0523V13.9091H17.2626C17.6224 13.9091 17.8461 13.7485 17.8463 13.4436C17.8461 13.1353 17.6115 13.0114 17.2734 13.0114ZM9.12368 13.0114V13.6522H11.1796V14.3714H9.12368V15.0727H11.4262L12.496 14.0386L11.4716 13.0114H9.12368ZM15.1361 15.4763V12.6504L13.6983 14.0406L15.1361 15.4763ZM9.20227 9.81708V10.4244H17.0266L17.0229 9.13959H17.1743C17.2804 9.14291 17.3112 9.15169 17.3112 9.30914V10.4245H21.358V10.1253C21.6844 10.2826 22.1921 10.4245 22.8601 10.4245H24.5626L24.9269 9.64176H25.7347L26.091 10.4245H29.3717V9.68097L29.8684 10.4244H32.4975V5.50977H29.8958V6.0902L29.5314 5.50977H26.8617V6.0902L26.5271 5.50977H22.9208C22.3171 5.50977 21.7866 5.58554 21.358 5.79675V5.50977H18.8693V5.79675C18.5965 5.57905 18.2248 5.50977 17.8117 5.50977H8.71971L8.10971 6.7792L7.48322 5.50977H4.61956V6.0902L4.3049 5.50977H1.86267L0.728558 7.84657V9.71577L2.40558 6.1918H3.79707L5.38977 9.52825V6.1918H6.91837L8.14397 8.58237L9.26992 6.1918H10.8292V9.71577H9.86925L9.86574 6.95586L8.5077 9.71577H7.68542L6.32391 6.95341V9.71577H4.41899L4.05914 8.92974H2.1092L1.74564 9.71577H0.728516V10.4247H2.32874L2.68952 9.64196H3.49736L3.8572 10.4247H7.00558V9.82623L7.28658 10.4272H8.92097L9.20201 9.81721L9.20227 9.81708ZM21.5317 6.60255C21.8343 6.3213 22.3086 6.19159 22.9539 6.19159H23.8606V6.94667H22.9729C22.6313 6.94667 22.4382 6.99238 22.2524 7.15548C22.0926 7.30383 21.9831 7.58432 21.9831 7.95366C21.9831 8.33122 22.0666 8.60342 22.2406 8.78123C22.3848 8.92068 22.6469 8.96297 22.8933 8.96297H23.3141L24.6339 6.19171H26.0371L27.6228 9.52484V6.19176H29.0487L30.6949 8.646V6.19176H31.6542V9.71561H30.3271L28.5519 7.07072V9.71561H26.6446L26.2802 8.92958H24.3347L23.9811 9.71561H22.8852C22.43 9.71561 21.8537 9.62508 21.5273 9.32582C21.1981 9.02664 21.027 8.62134 21.027 7.98056C21.0268 7.45787 21.129 6.98011 21.5317 6.60255ZM19.6054 6.19163H20.561V9.71561H19.6054V6.19163ZM15.2971 6.19163H17.4511C17.9296 6.19163 18.2825 6.20306 18.5853 6.36043C18.8815 6.51784 19.0591 6.74765 19.0591 7.14065C19.0591 7.70256 18.6421 7.99279 18.3993 8.08C18.6042 8.15016 18.7793 8.27409 18.8627 8.37673C18.9949 8.55202 19.0177 8.70858 19.0177 9.02327V9.71557H18.0731L18.0696 9.27117C18.0696 9.05908 18.0922 8.75413 17.9218 8.58469C17.785 8.4608 17.5763 8.43382 17.2391 8.43382H16.2338V9.71561H15.2973L15.2971 6.19163ZM11.5217 6.19163H14.6503V6.92547H12.4584V7.56067H14.5977V8.28303H12.4584V8.98679H14.6503V9.71557H11.5217V6.19163Z" fill="#2557D6"/>
</g>
<defs>
<clipPath id="clip0_46_1427">
<rect width="33.3141" height="21.957" fill="white" transform="translate(0.728516 0.0214844)"/>
</clipPath>
</defs>
</svg>
