<svg width="35" height="22" viewBox="0 0 35 22" fill="none" xmlns="http://www.w3.org/2000/svg">
<g clip-path="url(#clip0_46_1415)">
<path d="M0.657227 2.76611C0.657227 1.2503 1.92841 0.0214844 3.4965 0.0214844H31.8892C33.4573 0.0214844 34.7285 1.2503 34.7285 2.76611V19.2339C34.7285 20.7497 33.4573 21.9785 31.8892 21.9785H3.4965C1.92841 21.9785 0.657227 20.7497 0.657227 19.2339V2.76611Z" fill="#FCE0CF"/>
<path d="M20.943 10.9849C20.9456 10.395 20.7168 9.80422 20.2563 9.35904C19.7948 8.91294 19.1822 8.69195 18.5706 8.6955C18.5677 8.6955 18.5649 8.69531 18.5618 8.69531C17.234 8.69531 16.1807 9.71325 16.1807 10.9972C16.1807 12.2686 17.2469 13.299 18.5618 13.299C19.8901 13.299 20.9433 12.2809 20.9433 10.9972C20.9433 10.993 20.943 10.989 20.943 10.9849Z" fill="#F26E21"/>
<path d="M15.7391 11.9723C15.3832 12.3168 15.0547 12.4513 14.7008 12.4586C13.8389 12.4511 13.2051 11.834 13.2051 10.9543C13.2051 10.5114 13.3786 10.1485 13.6534 9.83839C13.9111 9.6019 14.243 9.4491 14.6248 9.4491C15.0369 9.4491 15.3576 9.58188 15.7237 9.93603V8.91791C15.3576 8.74093 15.0368 8.65234 14.6248 8.65234C14.0427 8.69256 13.4938 8.91993 13.0728 9.27696C12.9514 9.3825 12.8352 9.49899 12.7366 9.63233C12.429 10.0176 12.2432 10.4894 12.2432 10.9987C12.2432 12.2823 13.2968 13.2561 14.6247 13.2561C14.6312 13.2561 14.6376 13.2556 14.6439 13.2555C14.6528 13.2557 14.6616 13.2561 14.6705 13.2561C15.0367 13.2561 15.3576 13.1678 15.7697 12.9907L15.7391 11.9723C15.7236 11.9873 15.7544 12.0012 15.7391 12.0153V11.9723Z" fill="#2B2B2B"/>
<path d="M23.9501 9.2872L22.913 11.752L21.7223 8.83008H20.7607L22.6382 13.3012H23.1419L25.1111 8.83008H24.1496L23.9501 9.2872Z" fill="#2B2B2B"/>
<path d="M25.4775 10.7779V13.1686H27.9505H27.9961V12.46H27.2177H26.3934V11.6634V11.2651H27.9505V10.5123H26.3934V9.58276H27.9961V8.83008H25.4775V10.7779Z" fill="#2B2B2B"/>
<path d="M4.77858 8.83008H3.49609V13.1686H4.77851C5.46532 13.1686 5.96898 12.9913 6.38113 12.6814C6.88478 12.283 7.20548 11.6634 7.20548 10.9995C7.20555 9.71542 6.2437 8.83008 4.77858 8.83008ZM5.83174 12.1061C5.55696 12.3274 5.1906 12.46 4.64103 12.46H4.36624V9.5827H4.59517C5.14475 9.5827 5.51111 9.67122 5.78596 9.93672C6.10647 10.2022 6.28974 10.6008 6.28974 10.9994C6.33553 11.3978 6.15238 11.8402 5.83174 12.1061Z" fill="#2B2B2B"/>
<path d="M8.48825 8.83008H7.61816V13.1684H8.48825V8.83008Z" fill="#2B2B2B"/>
<path d="M10.6864 10.5133C10.137 10.3363 9.99942 10.2034 9.99942 9.98215C9.99942 9.71653 10.2742 9.49522 10.6406 9.49522C10.9154 9.49522 11.1443 9.5838 11.3733 9.84943L11.8314 9.27398C11.4649 8.96397 11.0071 8.78711 10.5033 8.78711C9.72464 8.78711 9.08349 9.31836 9.08349 10.0264C9.08349 10.6463 9.35853 10.9119 10.1827 11.2218C10.5491 11.3544 10.6865 11.3988 10.7782 11.4873C10.9611 11.5757 11.0528 11.753 11.0528 11.9298C11.0528 12.284 10.7782 12.5497 10.3658 12.5497C9.95332 12.5497 9.58728 12.3284 9.40406 11.9742L8.85449 12.5055C9.26683 13.0809 9.77055 13.3465 10.4117 13.3465C11.3275 13.3465 11.9683 12.771 11.9683 11.9298C11.9685 11.1774 11.6939 10.8676 10.6864 10.5133Z" fill="#2B2B2B"/>
<path d="M30.4695 11.3533C31.1562 11.2207 31.5227 10.7779 31.5227 10.114C31.5227 9.31732 30.9273 8.83008 29.9199 8.83008H28.5918V13.1686H29.4619V11.4419H29.5994L30.8356 13.1686H31.889L30.4695 11.3533ZM29.7365 10.8221H29.4619V9.49418H29.7365C30.2861 9.49418 30.6068 9.71542 30.6068 10.1584C30.6068 10.6009 30.2862 10.8221 29.7365 10.8221Z" fill="#2B2B2B"/>
</g>
<defs>
<clipPath id="clip0_46_1415">
<rect width="34.0712" height="21.957" fill="white" transform="translate(0.657227 0.0214844)"/>
</clipPath>
</defs>
</svg>
