<svg width="34" height="22" viewBox="0 0 34 22" fill="none" xmlns="http://www.w3.org/2000/svg">
<g clip-path="url(#clip0_46_1409)">
<path d="M0.34375 2.76611C0.34375 1.2503 1.58669 0.0214844 3.11992 0.0214844H30.8817C32.4149 0.0214844 33.6578 1.2503 33.6578 2.76611V19.2339C33.6578 20.7497 32.4149 21.9785 30.8817 21.9785H3.11992C1.58669 21.9785 0.34375 20.7497 0.34375 19.2339V2.76611Z" fill="#CCEFFF"/>
<path d="M20.6452 17.4761H13.3584V4.5293H20.6452V17.4761Z" fill="#6C6BBD"/>
<path d="M13.8247 10.9985C13.8247 8.37222 15.0685 6.03277 17.0055 4.52514C15.589 3.42268 13.8015 2.76466 11.8587 2.76466C7.25947 2.76466 3.53125 6.45104 3.53125 10.9985C3.53125 15.546 7.25947 19.2324 11.8587 19.2324C13.8015 19.2324 15.589 18.5744 17.0055 17.4719C15.0685 15.9643 13.8247 13.6249 13.8247 10.9985Z" fill="#EB001B"/>
<path d="M30.4718 10.9985C30.4718 15.546 26.7436 19.2324 22.1444 19.2324C20.2016 19.2324 18.414 18.5744 16.9971 17.4719C18.9345 15.9643 20.1783 13.6249 20.1783 10.9985C20.1783 8.37222 18.9345 6.03277 16.9971 4.52514C18.414 3.42268 20.2016 2.76466 22.1444 2.76466C26.7436 2.76466 30.4718 6.45104 30.4718 10.9985Z" fill="#0099DF"/>
</g>
<defs>
<clipPath id="clip0_46_1409">
<rect width="33.3141" height="21.957" fill="white" transform="translate(0.34375 0.0214844)"/>
</clipPath>
</defs>
</svg>
