<svg width="36" height="22" viewBox="0 0 36 22" fill="none" xmlns="http://www.w3.org/2000/svg">
<g clip-path="url(#clip0_46_1400)">
<path d="M0.958008 2.76611C0.958008 1.2503 2.22919 0.0214844 3.79728 0.0214844H32.19C33.7581 0.0214844 35.0292 1.2503 35.0292 2.76611V19.2339C35.0292 20.7497 33.7581 21.9785 32.19 21.9785H3.79728C2.22919 21.9785 0.958008 20.7497 0.958008 19.2339V2.76611Z" fill="#CCDEFF"/>
<path d="M8.60292 7.92339C8.24704 7.68689 7.78265 7.56836 7.20975 7.56836H4.99178C4.81615 7.56836 4.71912 7.65327 4.70069 7.82292L3.7997 13.2901C3.79034 13.3438 3.80424 13.3929 3.84127 13.4376C3.87809 13.4823 3.9244 13.5045 3.97987 13.5045H5.03339C5.21817 13.5045 5.31973 13.4198 5.33838 13.25L5.58786 11.776C5.59697 11.7046 5.62947 11.6465 5.68493 11.6018C5.74035 11.5571 5.80967 11.5279 5.89285 11.5146C5.97602 11.5013 6.05445 11.4946 6.12852 11.4946C6.20237 11.4946 6.29012 11.4991 6.39194 11.508C6.49351 11.5169 6.55825 11.5213 6.586 11.5213C7.38072 11.5213 8.00451 11.3048 8.45742 10.8714C8.91011 10.4382 9.13672 9.83752 9.13672 9.06905C9.13672 8.54199 8.95863 8.16013 8.60292 7.92327V7.92339ZM7.45936 9.56502C7.41301 9.87774 7.29301 10.0831 7.09895 10.1814C6.90485 10.2798 6.62761 10.3288 6.26724 10.3288L5.80976 10.3422L6.04547 8.90833C6.06386 8.81015 6.1239 8.761 6.22563 8.761H6.4891C6.85858 8.761 7.12675 8.81249 7.2931 8.91505C7.45936 9.01785 7.51483 9.23457 7.45936 9.56502Z" fill="#003087"/>
<path d="M32.0086 7.56836H30.9829C30.881 7.56836 30.821 7.61751 30.8027 7.71585L29.9016 13.2904L29.8877 13.3171C29.8877 13.362 29.9062 13.4043 29.9432 13.4445C29.98 13.4846 30.0264 13.5047 30.0818 13.5047H30.9968C31.1721 13.5047 31.2692 13.42 31.288 13.2502L32.189 7.76947V7.75616C32.1889 7.63103 32.1287 7.56852 32.0086 7.56852V7.56836Z" fill="#009CDE"/>
<path d="M19.6159 9.72665C19.6159 9.68209 19.5973 9.63958 19.5606 9.59948C19.5235 9.5593 19.4819 9.53906 19.4358 9.53906H18.3684C18.2666 9.53906 18.1834 9.58395 18.1188 9.67304L16.6495 11.7635L16.0395 9.75352C15.9931 9.6107 15.8916 9.53906 15.7346 9.53906H14.6947C14.6484 9.53906 14.6068 9.55921 14.5701 9.59948C14.533 9.63958 14.5146 9.68217 14.5146 9.72665C14.5146 9.74464 14.6048 10.0081 14.7849 10.5173C14.9651 11.0266 15.1592 11.5761 15.3671 12.1657C15.5751 12.7552 15.6836 13.0681 15.6929 13.1035C14.935 14.1042 14.5563 14.6402 14.5563 14.7116C14.5563 14.8278 14.6162 14.8858 14.7365 14.8858H15.8038C15.9055 14.8858 15.9886 14.8412 16.0534 14.7519L19.5884 9.82041C19.6067 9.80271 19.6159 9.77159 19.6159 9.72661V9.72665Z" fill="#003087"/>
<path d="M29.556 9.53716H28.5024C28.3729 9.53716 28.2946 9.68461 28.2669 9.97947C28.0263 9.62223 27.5876 9.44336 26.9498 9.44336C26.2845 9.44336 25.7184 9.68461 25.2518 10.167C24.785 10.6494 24.5518 11.2169 24.5518 11.869C24.5518 12.3961 24.7112 12.816 25.0299 13.1285C25.3488 13.4414 25.7761 13.5975 26.3123 13.5975C26.5803 13.5975 26.8529 13.5439 27.1301 13.4367C27.4073 13.3296 27.6243 13.1867 27.7817 13.0079C27.7817 13.0169 27.7723 13.057 27.754 13.1284C27.7353 13.2 27.7262 13.2538 27.7262 13.2892C27.7262 13.4323 27.7861 13.5036 27.9065 13.5036H28.863C29.0384 13.5036 29.1402 13.4189 29.1678 13.249L29.7363 9.75154C29.7454 9.69788 29.7316 9.64885 29.6946 9.60412C29.6575 9.55956 29.6114 9.53716 29.556 9.53716ZM27.747 12.1771C27.5113 12.4005 27.2271 12.5121 26.8944 12.5121C26.6263 12.5121 26.4093 12.4407 26.2429 12.2977C26.0765 12.1551 25.9933 11.9585 25.9933 11.7081C25.9933 11.3778 26.1088 11.0984 26.34 10.8706C26.5707 10.6428 26.8575 10.5289 27.1994 10.5289C27.4579 10.5289 27.6728 10.6026 27.844 10.75C28.0148 10.8974 28.1005 11.1006 28.1005 11.3598C28.1004 11.6814 27.9826 11.9539 27.747 12.1771Z" fill="#009CDE"/>
<path d="M13.8081 9.53716H12.7545C12.6249 9.53716 12.5466 9.68461 12.5188 9.97947C12.2693 9.62223 11.8303 9.44336 11.2019 9.44336C10.5365 9.44336 9.97036 9.68461 9.50372 10.167C9.03696 10.6494 8.80371 11.2169 8.80371 11.869C8.80371 12.3961 8.96315 12.816 9.282 13.1285C9.60084 13.4414 10.0282 13.5975 10.5642 13.5975C10.8229 13.5975 11.091 13.5439 11.3682 13.4367C11.6455 13.3296 11.8673 13.1867 12.0336 13.0079C11.9965 13.1151 11.9782 13.2089 11.9782 13.2892C11.9782 13.4323 12.0382 13.5036 12.1584 13.5036H13.1148C13.2903 13.5036 13.3921 13.4189 13.4198 13.249L13.9882 9.75154C13.9973 9.69788 13.9834 9.64885 13.9466 9.60412C13.9096 9.55956 13.8635 9.53716 13.8081 9.53716ZM11.999 12.1838C11.7633 12.4029 11.4744 12.5121 11.1327 12.5121C10.8645 12.5121 10.6496 12.4407 10.488 12.2977C10.3262 12.1551 10.2454 11.9585 10.2454 11.7081C10.2454 11.3778 10.3609 11.0984 10.592 10.8706C10.8229 10.6428 11.1094 10.5289 11.4515 10.5289C11.7101 10.5289 11.925 10.6026 12.0961 10.75C12.267 10.8974 12.3525 11.1006 12.3525 11.3598C12.3525 11.6903 12.2347 11.9651 11.999 12.1838Z" fill="#003087"/>
<path d="M24.3501 7.92339C23.9942 7.68689 23.53 7.56836 22.9569 7.56836H20.7528C20.5679 7.56836 20.4662 7.65327 20.4478 7.82292L19.5468 13.2901C19.5374 13.3438 19.5513 13.3929 19.5884 13.4376C19.625 13.4823 19.6715 13.5045 19.7269 13.5045H20.8636C20.9745 13.5045 21.0484 13.4465 21.0854 13.3304L21.335 11.776C21.3442 11.7046 21.3765 11.6465 21.432 11.6018C21.4875 11.5571 21.5567 11.5279 21.64 11.5146C21.7231 11.5013 21.8015 11.4946 21.8756 11.4946C21.9495 11.4946 22.0372 11.4991 22.139 11.508C22.2406 11.5169 22.3055 11.5213 22.333 11.5213C23.1279 11.5213 23.7516 11.3048 24.2045 10.8714C24.6573 10.4382 24.8837 9.83752 24.8837 9.06905C24.8838 8.54199 24.7058 8.16009 24.3501 7.92327V7.92339ZM22.9292 10.1278C22.7259 10.2617 22.4209 10.3287 22.0143 10.3287L21.5707 10.3421L21.8063 8.90825C21.8247 8.81011 21.8847 8.76088 21.9865 8.76088H22.2359C22.4393 8.76088 22.601 8.76985 22.7213 8.78766C22.8412 8.8056 22.9569 8.86135 23.0678 8.9551C23.1788 9.04894 23.2342 9.18525 23.2342 9.36383C23.2342 9.73918 23.1324 9.99366 22.9292 10.1278Z" fill="#009CDE"/>
</g>
<defs>
<clipPath id="clip0_46_1400">
<rect width="34.0712" height="21.957" fill="white" transform="translate(0.958008 0.0214844)"/>
</clipPath>
</defs>
</svg>
