<svg width="34" height="22" viewBox="0 0 34 22" fill="none" xmlns="http://www.w3.org/2000/svg">
<g clip-path="url(#clip0_46_1392)">
<path d="M0.0292969 2.76611C0.0292969 1.2503 1.27223 0.0214844 2.80547 0.0214844H30.5672C32.1005 0.0214844 33.3434 1.2503 33.3434 2.76611V19.2339C33.3434 20.7497 32.1005 21.9785 30.5672 21.9785H2.80547C1.27223 21.9785 0.0292969 20.7497 0.0292969 19.2339V2.76611Z" fill="#D8E3F3"/>
<path d="M28.7006 6.9043H26.9554C26.4278 6.9043 26.0219 7.0648 25.7784 7.58644L22.4502 15.09H24.8043C24.8043 15.09 25.2101 14.0869 25.2913 13.8461C25.5348 13.8461 27.8483 13.8461 28.173 13.8461C28.2542 14.127 28.4571 15.0499 28.4571 15.0499H30.5677L28.7006 6.9043ZM25.9407 12.1608C26.1436 11.6793 26.8336 9.87363 26.8336 9.87363C26.8336 9.91376 27.0366 9.39212 27.1177 9.11123L27.2801 9.8335C27.2801 9.8335 27.7265 11.7997 27.8077 12.2009H25.9407V12.1608Z" fill="#3362AB"/>
<path d="M22.6126 12.4028C22.6126 14.0881 21.0702 15.2116 18.6756 15.2116C17.6609 15.2116 16.6868 15.011 16.1592 14.7703L16.4839 12.9245L16.768 13.0448C17.4986 13.3658 17.9856 13.4862 18.8785 13.4862C19.5279 13.4862 20.2179 13.2455 20.2179 12.6837C20.2179 12.3226 19.9338 12.0818 19.0409 11.6805C18.1885 11.2793 17.0521 10.6373 17.0521 9.47361C17.0521 7.86856 18.635 6.78516 20.8673 6.78516C21.7196 6.78516 22.4502 6.94566 22.8967 7.14629L22.572 8.91184L22.4096 8.75134C22.0038 8.59083 21.4761 8.43033 20.705 8.43033C19.8526 8.47045 19.4468 8.83159 19.4468 9.1526C19.4468 9.51373 19.9338 9.79462 20.705 10.1558C22.0038 10.7576 22.6126 11.4398 22.6126 12.4028Z" fill="#3362AB"/>
<path d="M2.80566 6.98472L2.84625 6.82422H6.33676C6.82381 6.82422 7.1891 6.98472 7.31086 7.50636L8.08202 11.1177C7.31086 9.19166 5.52502 7.62674 2.80566 6.98472Z" fill="#F9B50B"/>
<path d="M12.9932 6.90536L9.46211 15.051H7.06745L5.03809 8.22952C6.49923 9.15242 7.71685 10.597 8.16331 11.6001L8.40684 12.4428L10.5986 6.86523H12.9932V6.90536Z" fill="#3362AB"/>
<path d="M13.9264 6.86523H16.1587L14.7382 15.051H12.5059L13.9264 6.86523Z" fill="#3362AB"/>
</g>
<defs>
<clipPath id="clip0_46_1392">
<rect width="33.3141" height="21.957" fill="white" transform="translate(0.0292969 0.0214844)"/>
</clipPath>
</defs>
</svg>
