<svg width="50" height="51" viewBox="0 0 50 51" fill="none" xmlns="http://www.w3.org/2000/svg">
<path d="M0 25.3262C0 11.5191 11.1929 0.326172 25 0.326172C38.8071 0.326172 50 11.5191 50 25.3262C50 39.1333 38.8071 50.3262 25 50.3262H0V25.3262Z" fill="#FF35C5"/>
<path d="M21.2086 19.7469C21.0651 19.8297 21.016 20.0132 21.0988 20.1567C21.1817 20.3002 21.3651 20.3494 21.5086 20.2665L25.6656 17.8665C25.809 17.7837 25.8582 17.6002 25.7754 17.4567C25.6925 17.3132 25.509 17.264 25.3656 17.3469L21.2086 19.7469Z" fill="white"/>
<path d="M21.6985 21.1961C21.6156 21.0526 21.6648 20.8692 21.8083 20.7863L24.4064 19.2863C24.5498 19.2035 24.7333 19.2526 24.8162 19.3961C24.899 19.5396 24.8498 19.7231 24.7064 19.8059L22.1083 21.3059C21.9648 21.3888 21.7813 21.3396 21.6985 21.1961Z" fill="white"/>
<path fill-rule="evenodd" clip-rule="evenodd" d="M28.7992 31.0004V28.0004C28.7992 27.669 28.5306 27.4004 28.1992 27.4004H19.7992C19.4679 27.4004 19.1992 27.669 19.1992 28.0004V31.0004C19.1992 31.3318 19.4679 31.6004 19.7992 31.6004H28.1992C28.5306 31.6004 28.7992 31.3318 28.7992 31.0004ZM28.1992 28.0004H19.7992V31.0004H28.1992V28.0004Z" fill="white"/>
<path fill-rule="evenodd" clip-rule="evenodd" d="M18.9004 19.3482L20.4316 22.0004H15.0004C14.669 22.0004 14.4004 22.269 14.4004 22.6004V24.4004C14.4004 24.7318 14.669 25.0004 15.0004 25.0004H16.2004V33.4004C16.2004 34.0631 16.7377 34.6004 17.4004 34.6004H30.6004C31.2631 34.6004 31.8004 34.0631 31.8004 33.4004V25.0004H33.0004C33.3318 25.0004 33.6004 24.7318 33.6004 24.4004V22.6004C33.6004 22.269 33.3318 22.0004 33.0004 22.0004H26.3552L29.4092 20.2372C29.6962 20.0715 29.7945 19.7045 29.6288 19.4176L26.9167 14.72C26.751 14.433 26.384 14.3347 26.0971 14.5004L19.12 18.5286C18.833 18.6943 18.7347 19.0612 18.9004 19.3482ZM26.3971 15.02L19.42 19.0482L21.1245 22.0004H25.1552L29.1092 19.7176L26.3971 15.02ZM16.8004 33.4004V25.0004H31.2004V33.4004C31.2004 33.7318 30.9318 34.0004 30.6004 34.0004H17.4004C17.069 34.0004 16.8004 33.7318 16.8004 33.4004ZM33.0004 22.6004V24.4004H31.8784C31.8774 24.4004 31.8764 24.4004 31.8754 24.4004H16.1254C16.1244 24.4004 16.1234 24.4004 16.1224 24.4004H15.0004V22.6004H33.0004Z" fill="white"/>
<path d="M33.0004 22.6004V24.4004H31.8784C31.8774 24.4004 31.8764 24.4004 31.8754 24.4004H16.1254C16.1244 24.4004 16.1234 24.4004 16.1224 24.4004H15.0004V22.6004H33.0004Z" fill="white"/>
<path d="M19.1204 18.5286C18.8335 18.6943 18.7351 19.0612 18.9008 19.3482L20.7785 22.6004H25.3164L29.4096 20.2372C29.6966 20.0715 29.7949 19.7045 29.6292 19.4176L26.9171 14.72C26.7514 14.433 26.3844 14.3347 26.0975 14.5004L19.1204 18.5286Z" fill="white" fill-opacity="0.4"/>
<path fill-rule="evenodd" clip-rule="evenodd" d="M31.7992 25H16.1992V33.4706C16.1992 34.0943 16.7365 34.6 17.3992 34.6H30.5992C31.262 34.6 31.7992 34.0943 31.7992 33.4706V25ZM19.7992 27.4C19.4679 27.4 19.1992 27.6686 19.1992 28V31C19.1992 31.3313 19.4679 31.6 19.7992 31.6H28.1992C28.5306 31.6 28.7992 31.3313 28.7992 31V28C28.7992 27.6686 28.5306 27.4 28.1992 27.4H19.7992Z" fill="white" fill-opacity="0.93"/>
</svg>
