<svg width="24" height="24" viewBox="0 0 24 24" fill="none" xmlns="http://www.w3.org/2000/svg">
<path d="M9.20864 6.74686C9.06514 6.82971 9.01599 7.01321 9.09884 7.15671C9.18169 7.30016 9.36514 7.34936 9.50864 7.26651L13.6656 4.8665C13.809 4.78366 13.8582 4.60018 13.7754 4.45669C13.6925 4.3132 13.509 4.26404 13.3656 4.34688L9.20864 6.74686Z" fill="white"/>
<path d="M9.69845 8.19614C9.6156 8.05264 9.66475 7.86919 9.80825 7.78634L12.4064 6.28634C12.5498 6.20349 12.7333 6.25264 12.8162 6.39614C12.899 6.53964 12.8498 6.72309 12.7064 6.80594L10.1083 8.30594C9.96475 8.38879 9.7813 8.33964 9.69845 8.19614Z" fill="white"/>
<path fill-rule="evenodd" clip-rule="evenodd" d="M16.7992 18.0004V15.0004C16.7992 14.669 16.5306 14.4004 16.1992 14.4004H7.79922C7.46787 14.4004 7.19922 14.669 7.19922 15.0004V18.0004C7.19922 18.3318 7.46787 18.6004 7.79922 18.6004H16.1992C16.5306 18.6004 16.7992 18.3318 16.7992 18.0004ZM16.1992 15.0004H7.79922V18.0004H16.1992V15.0004Z" fill="white"/>
<path fill-rule="evenodd" clip-rule="evenodd" d="M6.90037 6.34824L8.43161 9.00039H3.00039C2.66902 9.00039 2.40039 9.26904 2.40039 9.60039V11.4004C2.40039 11.7318 2.66902 12.0004 3.00039 12.0004H4.20039V20.4004C4.20039 21.0631 4.73765 21.6004 5.40037 21.6004H18.6004C19.2631 21.6004 19.8004 21.0631 19.8004 20.4004V12.0004H21.0004C21.3318 12.0004 21.6004 11.7318 21.6004 11.4004V9.60039C21.6004 9.26904 21.3318 9.00039 21.0004 9.00039H14.3552L17.4092 7.23719C17.6962 7.07149 17.7945 6.70454 17.6288 6.41759L14.9167 1.72002C14.751 1.43305 14.384 1.33472 14.0971 1.50041L7.12002 5.52859C6.83301 5.69429 6.73472 6.06124 6.90037 6.34824ZM14.3971 2.02002L7.42002 6.04824L9.12446 9.00039H13.1552L17.1092 6.71759L14.3971 2.02002ZM4.80039 20.4004V12.0004H19.2004V20.4004C19.2004 20.7318 18.9318 21.0004 18.6004 21.0004H5.40037C5.06902 21.0004 4.80039 20.7318 4.80039 20.4004ZM21.0004 9.60039V11.4004H19.8784C19.8774 11.4004 19.8764 11.4004 19.8754 11.4004H4.12539C4.12439 11.4004 4.1234 11.4004 4.1224 11.4004H3.00039V9.60039H21.0004Z" fill="white"/>
<path d="M21.0004 9.60039V11.4004H19.8784C19.8774 11.4004 19.8764 11.4004 19.8754 11.4004H4.12539C4.12439 11.4004 4.1234 11.4004 4.1224 11.4004H3.00039V9.60039H21.0004Z" fill="white"/>
<path d="M7.1204 5.52859C6.83345 5.69429 6.7351 6.06124 6.9008 6.34824L8.77845 9.60039H13.3164L17.4096 7.23719C17.6966 7.07149 17.7949 6.70454 17.6292 6.41759L14.9171 1.72002C14.7514 1.43305 14.3844 1.33472 14.0975 1.50041L7.1204 5.52859Z" fill="white" fill-opacity="0.4"/>
<path fill-rule="evenodd" clip-rule="evenodd" d="M19.7992 12H4.19922V20.4706C4.19922 21.0943 4.73648 21.6 5.39922 21.6H18.5992C19.262 21.6 19.7992 21.0943 19.7992 20.4706V12ZM7.79922 14.4C7.46787 14.4 7.19922 14.6686 7.19922 15V18C7.19922 18.3313 7.46787 18.6 7.79922 18.6H16.1992C16.5306 18.6 16.7992 18.3313 16.7992 18V15C16.7992 14.6686 16.5306 14.4 16.1992 14.4H7.79922Z" fill="white" fill-opacity="0.93"/>
</svg>
