<svg width="86" height="88" viewBox="0 0 86 88" fill="none" xmlns="http://www.w3.org/2000/svg">
<rect y="0.203125" width="85.3585" height="87" rx="16.4151" fill="#FFB800" fill-opacity="0.4"/>
<path d="M52.2169 32.1966V33.4114L46.406 30.0463C44.2064 28.7823 41.1367 28.7823 38.9535 30.0463L33.1426 33.4278V32.1966C33.1426 28.5032 35.1616 26.4678 38.855 26.4678H46.5045C50.1979 26.4678 52.2169 28.5032 52.2169 32.1966Z" fill="#FFA500"/>
<path d="M52.2661 36.2676L52.0363 36.1527L49.8039 34.8723L45.1748 32.1966C43.7631 31.3759 41.5963 31.3759 40.1846 32.1966L35.5556 34.8559L33.3231 36.1691L33.0276 36.3168C30.155 38.2538 29.958 38.6149 29.958 41.7174V49.137C29.958 52.2395 30.155 52.6006 33.0933 54.5868L40.1846 58.6742C40.8905 59.101 41.7769 59.2815 42.6797 59.2815C43.5661 59.2815 44.469 59.0845 45.1748 58.6742L52.3318 54.5376C55.2208 52.6006 55.4014 52.2559 55.4014 49.137V41.7174C55.4014 38.6149 55.2044 38.2538 52.2661 36.2676ZM47.2595 45.3451L46.2582 46.5762C46.094 46.7568 45.9791 47.1015 45.9956 47.3478L46.094 48.9236C46.1597 49.8921 45.4703 50.3845 44.5674 50.0398L43.1065 49.4489C42.8767 49.3668 42.4991 49.3668 42.2693 49.4489L40.8084 50.0234C39.9056 50.3845 39.2161 49.8757 39.2818 48.9072L39.3803 47.3313C39.3967 47.0851 39.2818 46.7404 39.1176 46.5598L38.0999 45.3451C37.4761 44.6064 37.7552 43.7857 38.6908 43.5395L40.2174 43.1455C40.4637 43.0798 40.7427 42.85 40.874 42.653L41.7276 41.3398C42.2529 40.5191 43.0901 40.5191 43.6318 41.3398L44.4854 42.653C44.6167 42.8664 44.9122 43.0798 45.142 43.1455L46.6686 43.5395C47.6042 43.7857 47.8833 44.6064 47.2595 45.3451Z" fill="#FFA500"/>
<path d="M18 44.2031C18 30.396 29.1929 19.2031 43 19.2031C56.8071 19.2031 68 30.396 68 44.2031C68 58.0102 56.8071 69.2031 43 69.2031H18V44.2031Z" fill="#FFA500"/>
<path d="M52.79 53.9631L52.07 53.2431C52.44 52.6831 52.66 52.0031 52.66 51.2831C52.66 49.3031 51.06 47.7031 49.08 47.7031C47.1 47.7031 45.5 49.3031 45.5 51.2831C45.5 53.2631 47.1 54.8631 49.08 54.8631C49.81 54.8631 50.48 54.6431 51.04 54.2731L51.76 54.9931C51.9 55.1331 52.09 55.2031 52.27 55.2031C52.46 55.2031 52.64 55.1331 52.78 54.9931C53.07 54.7031 53.07 54.2431 52.79 53.9631Z" fill="white"/>
<path d="M33.0298 47.833C33.0298 47.863 33.0098 47.903 33.0098 47.933C33.9298 49.773 35.4298 51.283 37.2698 52.193C37.2998 52.193 37.3398 52.173 37.3698 52.173C37.0298 51.013 36.7698 49.823 36.5798 48.633C35.3798 48.433 34.1898 48.173 33.0298 47.833Z" fill="white"/>
<path d="M50.0701 39.6336C49.1301 37.6636 47.5401 36.0736 45.5801 35.1436C45.9401 36.3336 46.2401 37.5536 46.4401 38.7736C47.6601 38.9736 48.8801 39.2636 50.0701 39.6336Z" fill="white"/>
<path d="M32.9297 39.6327C34.1297 39.2727 35.3497 38.9727 36.5697 38.7727C36.7697 37.5827 37.0197 36.4027 37.3597 35.2427C37.3297 35.2427 37.2897 35.2227 37.2597 35.2227C35.3797 36.1527 33.8497 37.7227 32.9297 39.6327Z" fill="white"/>
<path d="M44.8197 38.5631C44.5797 37.2631 44.2797 35.9631 43.8497 34.7031C43.8297 34.6331 43.8297 34.5731 43.8197 34.4931C43.0797 34.3131 42.2997 34.2031 41.4997 34.2031C40.6897 34.2031 39.9197 34.3131 39.1697 34.5031C39.1597 34.5731 39.1697 34.6331 39.1497 34.7131C38.7297 35.9731 38.4197 37.2631 38.1797 38.5631C40.3897 38.3231 42.6097 38.3231 44.8197 38.5631Z" fill="white"/>
<path d="M36.36 40.3828C35.05 40.6228 33.77 40.9328 32.5 41.3528C32.43 41.3728 32.37 41.3728 32.3 41.3828C32.11 42.1228 32 42.9028 32 43.7028C32 44.5128 32.11 45.2828 32.3 46.0328C32.37 46.0428 32.43 46.0328 32.51 46.0528C33.77 46.4728 35.06 46.7828 36.37 47.0228C36.12 44.8128 36.12 42.5928 36.36 40.3828Z" fill="white"/>
<path d="M50.6999 41.3828C50.6299 41.3828 50.5699 41.3728 50.4899 41.3528C49.2299 40.9328 47.9299 40.6228 46.6299 40.3828C46.8799 42.5928 46.8799 44.8128 46.6299 47.0128C47.9299 46.7728 49.2299 46.4728 50.4899 46.0428C50.5599 46.0228 50.6199 46.0328 50.6999 46.0228C50.8799 45.2728 50.9999 44.5028 50.9999 43.6928C50.9999 42.9028 50.8899 42.1328 50.6999 41.3828Z" fill="white"/>
<path d="M38.1797 48.843C38.4197 50.153 38.7197 51.443 39.1497 52.703C39.1697 52.773 39.1597 52.833 39.1697 52.913C39.9197 53.093 40.6897 53.203 41.4997 53.203C42.2997 53.203 43.0797 53.093 43.8197 52.903C43.8297 52.833 43.8297 52.773 43.8497 52.693C44.2697 51.433 44.5797 50.143 44.8197 48.833C43.7197 48.953 42.6097 49.043 41.4997 49.043C40.3897 49.043 39.2797 48.963 38.1797 48.843Z" fill="white"/>
<path d="M37.9496 40.1527C37.6496 42.5127 37.6496 44.8927 37.9496 47.2627C40.3096 47.5627 42.6896 47.5627 45.0596 47.2627C45.3596 44.9027 45.3596 42.5227 45.0596 40.1527C42.6896 39.8527 40.3096 39.8527 37.9496 40.1527Z" fill="white"/>
</svg>
