<svg width="50" height="50" viewBox="0 0 50 50" fill="none" xmlns="http://www.w3.org/2000/svg">
<path d="M0 25C0 11.1929 11.1929 0 25 0C38.8071 0 50 11.1929 50 25C50 38.8071 38.8071 50 25 50H0V25Z" fill="#FFA500"/>
<path d="M34.79 34.76L34.07 34.04C34.44 33.48 34.66 32.8 34.66 32.08C34.66 30.1 33.06 28.5 31.08 28.5C29.1 28.5 27.5 30.1 27.5 32.08C27.5 34.06 29.1 35.66 31.08 35.66C31.81 35.66 32.48 35.44 33.04 35.07L33.76 35.79C33.9 35.93 34.09 36 34.27 36C34.46 36 34.64 35.93 34.78 35.79C35.07 35.5 35.07 35.04 34.79 34.76Z" fill="white"/>
<path d="M15.0298 28.6309C15.0298 28.6609 15.0098 28.7009 15.0098 28.7309C15.9298 30.5709 17.4298 32.0809 19.2698 32.9909C19.2998 32.9909 19.3398 32.9709 19.3698 32.9709C19.0298 31.8109 18.7698 30.6209 18.5798 29.4309C17.3798 29.2309 16.1898 28.9709 15.0298 28.6309Z" fill="white"/>
<path d="M32.0701 20.4295C31.1301 18.4595 29.5401 16.8695 27.5801 15.9395C27.9401 17.1295 28.2401 18.3495 28.4401 19.5695C29.6601 19.7695 30.8801 20.0595 32.0701 20.4295Z" fill="white"/>
<path d="M14.9297 20.4295C16.1297 20.0695 17.3497 19.7695 18.5697 19.5695C18.7697 18.3795 19.0197 17.1995 19.3597 16.0395C19.3297 16.0395 19.2897 16.0195 19.2597 16.0195C17.3797 16.9495 15.8497 18.5195 14.9297 20.4295Z" fill="white"/>
<path d="M26.8197 19.36C26.5797 18.06 26.2797 16.76 25.8497 15.5C25.8297 15.43 25.8297 15.37 25.8197 15.29C25.0797 15.11 24.2997 15 23.4997 15C22.6897 15 21.9197 15.11 21.1697 15.3C21.1597 15.37 21.1697 15.43 21.1497 15.51C20.7297 16.77 20.4197 18.06 20.1797 19.36C22.3897 19.12 24.6097 19.12 26.8197 19.36Z" fill="white"/>
<path d="M18.36 21.1797C17.05 21.4197 15.77 21.7297 14.5 22.1497C14.43 22.1697 14.37 22.1697 14.3 22.1797C14.11 22.9197 14 23.6997 14 24.4997C14 25.3097 14.11 26.0797 14.3 26.8297C14.37 26.8397 14.43 26.8297 14.51 26.8497C15.77 27.2697 17.06 27.5797 18.37 27.8197C18.12 25.6097 18.12 23.3897 18.36 21.1797Z" fill="white"/>
<path d="M32.6999 22.1797C32.6299 22.1797 32.5699 22.1697 32.4899 22.1497C31.2299 21.7297 29.9299 21.4197 28.6299 21.1797C28.8799 23.3897 28.8799 25.6097 28.6299 27.8097C29.9299 27.5697 31.2299 27.2697 32.4899 26.8397C32.5599 26.8197 32.6199 26.8297 32.6999 26.8197C32.8799 26.0697 32.9999 25.2997 32.9999 24.4897C32.9999 23.6997 32.8899 22.9297 32.6999 22.1797Z" fill="white"/>
<path d="M20.1797 29.6409C20.4197 30.9509 20.7197 32.2409 21.1497 33.5009C21.1697 33.5709 21.1597 33.6309 21.1697 33.7109C21.9197 33.8909 22.6897 34.0009 23.4997 34.0009C24.2997 34.0009 25.0797 33.8909 25.8197 33.7009C25.8297 33.6309 25.8297 33.5709 25.8497 33.4909C26.2697 32.2309 26.5797 30.9409 26.8197 29.6309C25.7197 29.7509 24.6097 29.8409 23.4997 29.8409C22.3897 29.8409 21.2797 29.7609 20.1797 29.6409Z" fill="white"/>
<path d="M19.9496 20.9496C19.6496 23.3096 19.6496 25.6896 19.9496 28.0596C22.3096 28.3596 24.6896 28.3596 27.0596 28.0596C27.3596 25.6996 27.3596 23.3196 27.0596 20.9496C24.6896 20.6496 22.3096 20.6496 19.9496 20.9496Z" fill="white"/>
</svg>
