<svg width="86" height="89" viewBox="0 0 86 89" fill="none" xmlns="http://www.w3.org/2000/svg">
<rect y="0.875977" width="86" height="87.6538" rx="16.5385" fill="#EBBDDD"/>
<path d="M55.1235 33.4242L44.7539 27.8342C43.6624 27.2388 42.3393 27.2388 41.2478 27.8342L30.8781 33.4242C30.1174 33.8377 29.6543 34.6315 29.6543 35.5412C29.6543 36.4342 30.1174 37.2446 30.8781 37.6581L41.2478 43.2481C41.7935 43.5458 42.4054 43.6946 43.0008 43.6946C43.5962 43.6946 44.2081 43.5458 44.7539 43.2481L55.1235 37.6581C55.8843 37.2446 56.3474 36.4508 56.3474 35.5412C56.3474 34.6315 55.8843 33.8377 55.1235 33.4242Z" fill="#FF35C5"/>
<path d="M39.5438 45.1829L29.8854 40.3537C29.1411 39.9898 28.2811 40.0229 27.5865 40.4529C26.8754 40.8994 26.4619 41.6437 26.4619 42.4706V51.5833C26.4619 53.1544 27.3385 54.5767 28.7442 55.2879L38.3861 60.1171C38.7169 60.2825 39.0808 60.3652 39.4446 60.3652C39.8746 60.3652 40.3046 60.2494 40.685 60.0179C41.3961 59.5879 41.8096 58.8271 41.8096 58.0002V48.8875C41.8261 47.2998 40.9496 45.8775 39.5438 45.1829Z" fill="#FF35C5"/>
<path d="M58.4145 40.4527C57.7033 40.0227 56.8433 39.9731 56.1156 40.3535L46.4737 45.1827C45.0679 45.8939 44.1914 47.2997 44.1914 48.8874V58.0001C44.1914 58.827 44.6049 59.5877 45.316 60.0177C45.6964 60.2493 46.1264 60.3651 46.5564 60.3651C46.9203 60.3651 47.2841 60.2824 47.6149 60.117L57.2568 55.2877C58.6626 54.5766 59.5391 53.1708 59.5391 51.5831V42.4704C59.5391 41.6435 59.1256 40.8993 58.4145 40.4527Z" fill="#FF35C5"/>
<path d="M18 46.2031C18 32.396 29.1929 21.2031 43 21.2031C56.8071 21.2031 68 32.396 68 46.2031C68 60.0102 56.8071 71.2031 43 71.2031H18V46.2031Z" fill="#FF35C5"/>
<path d="M43.5254 41.4152C40.7061 37.2118 35 39.5017 35 44.0806C35 47.519 42.8228 52.8977 43.5254 53.5971C44.2329 52.8977 51.6667 47.519 51.6667 44.0806C51.6667 39.5364 46.35 37.2118 43.5254 41.4152Z" fill="white"/>
</svg>
