<svg width="86" height="88" viewBox="0 0 86 88" fill="none" xmlns="http://www.w3.org/2000/svg">
<rect y="0.203125" width="86" height="87.6538" rx="16.5385" fill="#0156FF" fill-opacity="0.4"/>
<path d="M54.2637 33.6944H56.5129C56.1987 33.2478 55.8679 32.8344 55.5206 32.4209L54.2637 33.6944Z" fill="#0156FF"/>
<path d="M53.7832 30.6671C53.3698 30.3198 52.9563 29.989 52.5098 29.6748V31.924L53.7832 30.6671Z" fill="#0156FF"/>
<path d="M55.5363 32.4203L60.4151 27.5415C60.8947 27.0619 60.8947 26.268 60.4151 25.7884C59.9355 25.3088 59.1417 25.3088 58.662 25.7884L53.7832 30.6673C54.4117 31.213 54.9905 31.8084 55.5363 32.4203Z" fill="#0156FF"/>
<path d="M52.5101 28.3185C52.5101 27.6404 51.9478 27.0781 51.2697 27.0781C50.6082 27.0781 50.079 27.6074 50.0459 28.2524C50.9059 28.6658 51.7328 29.1289 52.5101 29.6747V28.3185Z" fill="#0156FF"/>
<path d="M59.1258 34.9347C59.1258 34.2566 58.5635 33.6943 57.8854 33.6943H56.5127C57.0585 34.4716 57.5381 35.2986 57.935 36.1586C58.5965 36.1255 59.1258 35.5963 59.1258 34.9347Z" fill="#0156FF"/>
<path d="M44.2412 47.752H44.7374C45.3824 47.752 45.8951 47.1731 45.8951 46.462C45.8951 45.5689 45.647 45.4366 45.0847 45.2381L44.2412 44.9404V47.752Z" fill="#0156FF"/>
<path d="M57.9511 36.1581C57.9346 36.1581 57.9181 36.1747 57.885 36.1747H51.2696C51.1042 36.1747 50.9554 36.1416 50.79 36.0754C50.4923 35.9431 50.2442 35.7116 50.1119 35.3973C50.0623 35.2485 50.0292 35.0997 50.0292 34.9343V28.3189C50.0292 28.3023 50.0458 28.2858 50.0458 28.2527C47.8958 27.2439 45.5142 26.665 43.0004 26.665C33.8711 26.665 26.4619 34.0743 26.4619 43.2035C26.4619 52.3327 33.8711 59.742 43.0004 59.742C52.1296 59.742 59.5388 52.3327 59.5388 43.2035C59.5388 40.6897 58.96 38.3081 57.9511 36.1581ZM45.8946 42.9058C46.9531 43.2697 48.3754 44.047 48.3754 46.4781C48.3754 48.5454 46.7381 50.2489 44.7369 50.2489H44.2408V50.6623C44.2408 51.3404 43.6785 51.9027 43.0004 51.9027C42.3223 51.9027 41.76 51.3404 41.76 50.6623V50.2489H41.6277C39.4281 50.2489 37.6254 48.3966 37.6254 46.1143C37.6254 45.4197 38.1877 44.8573 38.8658 44.8573C39.5438 44.8573 40.1061 45.4197 40.1061 46.0977C40.1061 47.0073 40.7842 47.7516 41.6277 47.7516H41.76V44.08L40.1061 43.5012C39.0477 43.1373 37.6254 42.36 37.6254 39.9289C37.6254 37.8616 39.2627 36.1581 41.2638 36.1581H41.76V35.7612C41.76 35.0831 42.3223 34.5208 43.0004 34.5208C43.6785 34.5208 44.2408 35.0831 44.2408 35.7612V36.1747H44.3731C46.5727 36.1747 48.3754 38.027 48.3754 40.3093C48.3754 40.9873 47.8131 41.5497 47.135 41.5497C46.4569 41.5497 45.8946 40.9873 45.8946 40.3093C45.8946 39.3997 45.2165 38.6554 44.3731 38.6554H44.2408V42.327L45.8946 42.9058Z" fill="#0156FF"/>
<path d="M40.1064 39.9453C40.1064 40.8384 40.3545 40.9707 40.9168 41.1691L41.7603 41.4668V38.6553H41.2641C40.6357 38.6553 40.1064 39.2341 40.1064 39.9453Z" fill="#0156FF"/>
<path d="M18 44.2031C18 30.396 29.1929 19.2031 43 19.2031C56.8071 19.2031 68 30.396 68 44.2031C68 58.0102 56.8071 69.2031 43 69.2031H18V44.2031Z" fill="#0156FF"/>
<path d="M34.8939 37.2031C34.3916 37.2031 33.9099 37.4027 33.5547 37.7578C33.1995 38.113 33 38.5948 33 39.0971V49.5137H34.8939C34.8939 50.2672 35.1932 50.9898 35.726 51.5226C36.2588 52.0553 36.9814 52.3546 37.7348 52.3546C38.4883 52.3546 39.2109 52.0553 39.7437 51.5226C40.2764 50.9898 40.5758 50.2672 40.5758 49.5137H46.2576C46.2576 50.2672 46.5569 50.9898 47.0897 51.5226C47.6224 52.0553 48.345 52.3546 49.0985 52.3546C49.8519 52.3546 50.5745 52.0553 51.1073 51.5226C51.6401 50.9898 51.9394 50.2672 51.9394 49.5137H53.8333V44.7789L50.9924 40.991H48.1515V37.2031H34.8939ZM48.1515 42.4115H50.5189L52.3845 44.7789H48.1515V42.4115ZM37.7348 48.0933C38.1116 48.0933 38.4729 48.2429 38.7393 48.5093C39.0056 48.7757 39.1553 49.137 39.1553 49.5137C39.1553 49.8905 39.0056 50.2518 38.7393 50.5181C38.4729 50.7845 38.1116 50.9342 37.7348 50.9342C37.3581 50.9342 36.9968 50.7845 36.7304 50.5181C36.464 50.2518 36.3144 49.8905 36.3144 49.5137C36.3144 49.137 36.464 48.7757 36.7304 48.5093C36.9968 48.2429 37.3581 48.0933 37.7348 48.0933ZM49.0985 48.0933C49.4752 48.0933 49.8365 48.2429 50.1029 48.5093C50.3693 48.7757 50.5189 49.137 50.5189 49.5137C50.5189 49.8905 50.3693 50.2518 50.1029 50.5181C49.8365 50.7845 49.4752 50.9342 49.0985 50.9342C48.7218 50.9342 48.3605 50.7845 48.0941 50.5181C47.8277 50.2518 47.678 49.8905 47.678 49.5137C47.678 49.137 47.8277 48.7757 48.0941 48.5093C48.3605 48.2429 48.7218 48.0933 49.0985 48.0933Z" fill="white"/>
</svg>
