<svg width="32" height="31" viewBox="0 0 32 31" fill="none" xmlns="http://www.w3.org/2000/svg">
<path fill-rule="evenodd" clip-rule="evenodd" d="M31.2777 15.2914C31.2777 23.7291 24.4376 30.5692 15.9999 30.5692C7.56226 30.5692 0.722168 23.7291 0.722168 15.2914C0.722168 6.85377 7.56226 0.0136719 15.9999 0.0136719C24.4376 0.0136719 31.2777 6.85377 31.2777 15.2914ZM8.80853 12.6834L14.9196 6.57226C15.5163 5.97562 16.4836 5.97562 17.0802 6.57226L23.1914 12.6834C23.788 13.28 23.788 14.2473 23.1914 14.844C22.5947 15.4406 21.6274 15.4406 21.0308 14.844L17.5277 11.3409V22.9304C17.5277 23.7741 16.8437 24.4581 15.9999 24.4581C15.1562 24.4581 14.4722 23.7741 14.4722 22.9304V11.3409L10.9691 14.844C10.3725 15.4406 9.40517 15.4406 8.80853 14.844C8.2119 14.2473 8.2119 13.28 8.80853 12.6834Z" fill="#5C5F62"/>
</svg>
